<!--?xml version="1.0" encoding="utf-8"?-->
<!-- Svg Vector Icons : http://www.onlinewebfonts.com/icon -->

<svg version="1.1" xmlns="http://www.w3.org/2000/svg" xmlns:xlink="http://www.w3.org/1999/xlink" x="0px" y="0px" viewBox="0 0 256 256" enable-background="new 0 0 256 256" xml:space="preserve">
<metadata> Svg Vector Icons : http://www.onlinewebfonts.com/icon </metadata>
<g><g><path fill="#ffffff" data-title="Layer 0" xs="0" d="M109.5,130.9c-8.1-9-13-20.9-13-34c0-22.5,14.7-41.6,35-48.3c-3.6-17.7-19.3-30.9-38-30.9c-21.4,0-38.8,17.4-38.8,38.8c0,18.8,13.4,34.5,31.1,38c-40,3.6-72,35.5-75.7,75.5c15.1,2.4,31,4.1,47.6,5.1C69.2,155.1,87.5,139.2,109.5,130.9z"/><path fill="#ffffff" data-title="Layer 1" xs="1" d="M196.7,164.6c0-2,1.9-3.7,4.3-3.7h7c-13.6-14.4-32.2-23.9-53.1-25.8c17.7-3.6,31.1-19.2,31.1-38c0-21.4-17.4-38.8-38.8-38.8c-21.4,0-38.8,17.4-38.8,38.8c0,18.8,13.4,34.5,31.1,38c-40,3.7-71.9,35.5-75.7,75.5c25.6,4,53.8,6.2,83.4,6.2c7.6,0,15.1-0.1,22.5-0.4c-0.5-0.7-0.8-1.6-0.8-2.6v-20.5c0-2.4,1.7-4.3,3.7-4.3h24.1L196.7,164.6L196.7,164.6z"/><path fill="#ffffff" data-title="Layer 2" xs="2" d="M242.8,195.5h-23.5V172c0-1.7-1.1-3.2-2.4-3.2h-11.4c-1.3,0-2.4,1.4-2.4,3.2v23.5h-23.5c-1.7,0-3.2,1.1-3.2,2.4v11.4c0,1.3,1.4,2.4,3.2,2.4h23.5v23.5c0,1.7,1.1,3.2,2.4,3.2H217c1.3,0,2.4-1.4,2.4-3.2v-23.5h23.5c1.7,0,3.2-1.1,3.2-2.4v-11.4C246,196.5,244.6,195.5,242.8,195.5z"/></g></g>
</svg>