<!--?xml version="1.0" encoding="utf-8"?-->
<!-- Svg Vector Icons : http://www.onlinewebfonts.com/icon -->

<svg version="1.1" xmlns="http://www.w3.org/2000/svg" xmlns:xlink="http://www.w3.org/1999/xlink" x="0px" y="0px" viewBox="0 0 256 256" enable-background="new 0 0 256 256" xml:space="preserve">
<metadata> Svg Vector Icons : http://www.onlinewebfonts.com/icon </metadata>
<g><g><g><path fill="#ffffff" data-title="Layer 0" xs="0" d="M152,10.5c-17.2,1.9-34.1,9.5-47.3,21.1c-20,17.6-30.8,45.6-27.8,71.9c1.8,15.7,7.1,29.3,17.2,43.2c0.3,0.5-1.1,2.2-6,7.1l-6.5,6.5l-4.2-4.2l-4.3-4.3l-31.6,31.6L10,214.9l15.6,15.6L41.1,246l31.6-31.6l31.6-31.6l-4.3-4.3l-4.2-4.2l6.5-6.5c4.9-4.9,6.6-6.3,7.1-6c6.2,4.5,16.7,10.4,21.1,11.9c0.6,0.2,1.1-0.7,2.4-4c1.6-4.1,5.6-11.4,7.7-14c0.5-0.7,0.8-1.3,0.6-1.5c-0.2-0.1-1.8-0.9-3.6-1.6c-10-4-19.9-11.8-26.8-21c-10.2-13.6-14.4-32.8-10.8-49.6c5.3-24.6,24-43.2,48.9-48.8c5.9-1.3,18.2-1.4,24-0.2c29,6,49.5,29.6,51,58.6c0.6,11.8-2.5,24.6-8.5,34.5c-1.3,2.2-2.4,4.1-2.4,4.2c0,0.1,1.4,0.7,3.1,1.2c4.4,1.5,8.9,3.6,13.1,6.2c4.2,2.6,3.6,3,7.4-4.3c14.3-27.5,12.3-60.3-5.2-86.3C213.9,21.4,182.9,7,152,10.5z"/><path fill="#ffffff" data-title="Layer 1" xs="1" d="M185.8,143.5c-27.7,4.7-46.8,31.3-42.3,59c1.2,7.1,4.4,15.4,8.2,20.9c8,11.7,21,19.9,34.9,21.9c28.2,4.3,54.5-15,58.8-43.1c3-19.6-5.5-39.3-21.9-50.6C213,144.5,198.6,141.3,185.8,143.5z M201.8,187v22.1h-7.4H187V187v-22.1h7.4h7.4V187L201.8,187z M197.3,217.2c4.7,2,5.9,8.2,2.2,11.8c-3,3-7.2,3-10.2,0C183.6,223.3,189.9,214,197.3,217.2z"/></g></g></g>
</svg>