<!--?xml version="1.0" encoding="utf-8"?-->
<!-- Svg Vector Icons : http://www.onlinewebfonts.com/icon -->

<svg version="1.1" xmlns="http://www.w3.org/2000/svg" xmlns:xlink="http://www.w3.org/1999/xlink" x="0px" y="0px" viewBox="0 0 256 256" enable-background="new 0 0 256 256" xml:space="preserve">
<metadata> Svg Vector Icons : http://www.onlinewebfonts.com/icon </metadata>
<g><g><g><path fill="#ffffff" data-title="Layer 0" xs="0" d="M31.6,30.8C21.5,33,12.7,42,10.6,52.2c-0.6,2.9-0.7,13.1-0.6,77.5c0.1,68.2,0.2,74.3,0.9,76.3c3.6,9.9,10.3,16.5,19.9,19.1c2.7,0.7,9.3,0.8,97.2,0.8c89.9,0,94.5,0,97.3-0.8c9.6-2.7,16.2-9.2,19.8-19.1c0.7-2,0.8-8.1,0.9-76.3c0.1-64.6,0-74.6-0.6-77.5c-2.1-10.4-10.8-19.2-21.2-21.4C219.5,29.8,36.2,29.8,31.6,30.8z M223.3,38.1c7.4,1.9,12.9,7.4,14.8,14.8c0.4,1.3,0.6,4.7,0.6,7.9v5.7H128H17.3v-5.7c0-3.2,0.3-6.6,0.6-7.9c1.9-7.2,7.4-12.8,14.6-14.8C35.7,37.3,220,37.3,223.3,38.1z M238.7,137c0,69.4,0.1,66.1-2.6,71.3c-1.6,2.9-5.9,6.8-9,8.3c-1.3,0.6-3.7,1.4-5.2,1.7c-3.9,0.7-184,0.7-187.8,0c-3.8-0.7-7.1-2.4-10.1-5.1c-3-2.7-4.6-5.3-5.8-9.2c-0.8-2.7-0.9-5.4-0.9-66.7V73.5H128h110.7V137z"/><path fill="#ffffff" data-title="Layer 1" xs="1" d="M101.8,43.1c-4.8,2.4-6.9,8-4.8,12.6c1.1,2.4,4.2,5.2,6.4,5.6c1,0.2,20.3,0.4,42.8,0.4c39.2,0,41.1,0,42.7-0.9c7.1-3.8,7.7-13.1,1.2-17.1l-2.2-1.4l-42-0.1l-42-0.1L101.8,43.1z M186.8,50.6c0.9,1.4,0.3,3.3-1.2,3.6c-0.6,0.2-18.8,0.3-40.5,0.3c-35,0-39.6-0.1-40.5-0.7c-1.2-0.8-1.3-2.3-0.2-3.5c0.7-0.8,2.6-0.8,41.2-0.8h40.5L186.8,50.6z"/><path fill="#ffffff" data-title="Layer 2" xs="2" d="M216.6,43.7l-1.1,1.2l0.9,1.3c0.5,0.7,1.3,1.7,1.9,2.2c0.6,0.5,1,1.1,1,1.3c0,0.2-2.6,0.4-5.8,0.4h-5.8v1.8v1.8h6h6l-2.1,2.5c-1.2,1.4-2.1,2.7-2.1,2.9c0,0.2,0.6,0.8,1.2,1.2l1.2,0.9l2.3-2.5c1.2-1.4,3-3.5,4.1-4.7l1.8-2.1l-4-4.7c-2.2-2.6-4.2-4.7-4.3-4.7C217.8,42.6,217.2,43.1,216.6,43.7z"/><path fill="#ffffff" data-title="Layer 3" xs="3" d="M33.5,46.7c-2.5,1.5-3.6,5.2-2.2,7.7c2.1,4,7.3,4.8,10.1,1.5c1.7-2,1.9-4.1,0.8-6.5C40.8,46,36.7,44.8,33.5,46.7z"/><path fill="#ffffff" data-title="Layer 4" xs="4" d="M51.6,46.5c-2,1-3.6,4.2-3.2,6.4c0.9,4.6,6.7,6.7,10.1,3.6C63.9,51.6,58.2,43.3,51.6,46.5z"/><path fill="#ffffff" data-title="Layer 5" xs="5" d="M69.6,46.3c-1.9,0.7-3.4,3.1-3.4,5.4c0,2.9,1.1,4.7,3.4,5.8c2.4,1.1,2.8,1.1,5.2,0c2.3-1.1,3.5-3,3.5-5.4C78.2,47.6,73.7,44.6,69.6,46.3z"/><path fill="#ffffff" data-title="Layer 6" xs="6" d="M48.7,116c-0.8,0.6-2,1.7-2.5,2.4c-1,1.3-1,1.7-1,27.2v25.9l1.1,1.5c0.6,0.8,1.9,1.9,2.9,2.4c1.8,0.9,3,0.9,78.4,0.9c52.9,0,76.9-0.1,77.9-0.5c2-0.7,4.2-3.1,4.7-5.2c0.4-1.4,0.5-8.9,0.4-26.2l-0.1-24.2l-1.2-1.9c-2.4-3.7,4.8-3.4-81.7-3.4H50.2L48.7,116z M203.1,145.5l0.1,23.4h-75.4H52.4v-23.2c0-12.8,0.1-23.4,0.3-23.5c0.1-0.2,34-0.3,75.3-0.2l75,0.1L203.1,145.5z"/><path fill="#ffffff" data-title="Layer 7" xs="7" d="M177,132.5c-6,3.6-3.4,12.9,3.6,12.9c3.9,0,6.9-3,6.9-6.9c0-3.9-3-6.9-6.9-6.9C179.3,131.6,177.9,132,177,132.5z"/><path fill="#ffffff" data-title="Layer 8" xs="8" d="M89,133.7c-6.1,1.5-8.9,4.9-9.4,11.1c-0.3,4.2,0.7,7.3,3,9.6c2.2,2.3,4.2,3,7.7,3c6.6,0,10.7-4,11.2-10.9c0.2-3.9-0.4-6.4-2.2-8.9C97.4,134.9,92.3,132.9,89,133.7z M93.8,139.1c2.5,2.3,3.2,7.6,1.5,11.1c-1.1,2.3-2.4,3.1-4.8,3.1c-3.3,0-5.4-3.1-5.4-7.8C85.1,139.2,89.9,135.6,93.8,139.1z"/><path fill="#ffffff" data-title="Layer 9" xs="9" d="M64.3,145.7v11.8h7.1h7.1v-2.3v-2.3H74h-4.6v-9.5v-9.5h-2.5h-2.5L64.3,145.7L64.3,145.7z"/><path fill="#ffffff" data-title="Layer 10" xs="10" d="M112.1,134.6c-2.9,0.9-6.3,4.3-7.1,6.9s-0.7,7.2,0.2,9.3c2.2,5.3,8.3,7.6,16.4,6.1l3.2-0.6v-6.2V144h-4.4H116l0.1,1.9c0.1,1.9,0.2,2,1.9,2.1l1.7,0.1v2.5v2.5h-2.2c-4.7,0-7.5-2.8-7.5-7.6c0-3.6,1.1-5.5,4-6.8c1.7-0.7,2.7-0.9,4.7-0.7c1.4,0.1,3,0.4,3.4,0.6c0.6,0.2,0.9-0.1,1.3-1.6c0.4-1.5,0.5-2,0-2.4C122.6,133.8,114.8,133.8,112.1,134.6z"/><path fill="#ffffff" data-title="Layer 11" xs="11" d="M128.9,145.7v11.8l2.7-0.1l2.6-0.1v-11.5v-11.5l-2.6-0.1l-2.7-0.1V145.7z"/><path fill="#ffffff" data-title="Layer 12" xs="12" d="M139.1,145.7v11.8h2.3h2.3V149v-8.4l3.2,6c1.7,3.3,3.7,7.1,4.5,8.4l1.3,2.4h2.7h2.6v-11.8v-11.8h-2.4h-2.4l0.2,8.1l0.1,8.1l-1.5-3.1c-0.9-1.7-2.8-5.3-4.3-8.1l-2.8-4.9h-3h-3V145.7L139.1,145.7z"/><path fill="#ffffff" data-title="Layer 13" xs="13" d="M176.3,148.4c-4,1.4-7.8,6.2-7.8,9.8v1.5h12h12v-1.5c0-3.6-3.8-8.4-7.7-9.7C182.3,147.6,178.7,147.5,176.3,148.4z"/></g></g></g>
</svg>