<svg xmlns="http://www.w3.org/2000/svg" viewBox="0 0 1537.91 1741.96"><defs><style>.cls-1{fill:#fff;}</style></defs><title>Asset 1</title><g id="Layer_2" data-name="Layer 2"><g id="Capa_2" data-name="Capa 2"><path class="cls-1" d="M223.19,725.83V150.56A105.74,105.74,0,0,1,328.78,44.9H1234.7a105.75,105.75,0,0,1,105.59,105.66V854.87h44.9V150.56c0-83-67.51-150.56-150.49-150.56H328.78c-83,0-150.49,67.54-150.49,150.56V725.83Z"/><path class="cls-1" d="M0,824.15v776.11C0,1678.39,63.57,1742,141.7,1742H1396.21c78.13,0,141.7-63.57,141.7-141.7V996.57c0-78.13-63.57-141.7-141.7-141.7H994.76V824.15a98.42,98.42,0,0,0-98.31-98.32H98.32A98.43,98.43,0,0,0,0,824.15Zm44.9,0a53.48,53.48,0,0,1,53.42-53.42H896.45a53.47,53.47,0,0,1,53.41,53.42v53.17a22.45,22.45,0,0,0,22.45,22.45h423.9a96.91,96.91,0,0,1,96.8,96.8v603.69a96.9,96.9,0,0,1-96.8,96.8H141.7a96.9,96.9,0,0,1-96.8-96.8Z"/><path class="cls-1" d="M176.22,900.81a43.62,43.62,0,1,0-43.62-43.62A43.61,43.61,0,0,0,176.22,900.81Z"/><path class="cls-1" d="M328.88,900.81a43.62,43.62,0,1,0-43.61-43.62A43.61,43.61,0,0,0,328.88,900.81Z"/><path class="cls-1" d="M479.45,900.81a43.62,43.62,0,1,0-43.61-43.62A43.61,43.61,0,0,0,479.45,900.81Z"/><path class="cls-1" d="M850.1,110l.11-.06a22.65,22.65,0,0,0-3.36-4.5C836.56,94.08,823,87.85,808.49,87.85h-.22c-.58,0-1.1,0-1.65,0s-.94,0-1.44,0h-.43c-14.58,0-28.21,6.29-38.49,17.73a23.2,23.2,0,0,0-2.12,2.59l.09.07c-5.48,8.58-36.4,60.93-258.76,440.83-3.29,5.35-14,24.08-14,40.61C491.45,623.5,516,651,546.12,651h521c30.15,0,54.67-27.5,54.67-61.32,0-16.54-10.74-35.26-13.77-40.18C897,189.05,858.24,123.18,850.1,110Zm217,496.11h-521c-4,0-9.77-6.39-9.77-16.27.2-3,3.79-11.36,7.62-17.65C627.79,429,785.57,159.58,800.42,134.82a7,7,0,0,1,4-2.06c.35,0,.71.06,1.07.08a21.49,21.49,0,0,0,2.27,0l1-.08a7.06,7.06,0,0,1,4,2C827.59,159.46,985.44,429,1069.52,572.6c3.16,5.13,7.15,14,7.37,17.08C1076.89,599.71,1071.1,606.1,1067.12,606.1Z"/><path class="cls-1" d="M815.2,514.32a24.5,24.5,0,1,0,24.48,24.51A24.5,24.5,0,0,0,815.2,514.32Z"/><path class="cls-1" d="M815.1,493.79a17.37,17.37,0,0,0,17.37-17.37l6.1-200.72c0-4.79-6.63-15.32-24.12-15.32s-24.13,10.53-24.13,15.32l7.41,200.72A17.37,17.37,0,0,0,815.1,493.79Z"/></g></g></svg>